#N canvas 262 71 1454 839 24;
#X obj 123 88 noise~;
#X obj 156 158 *~;
#X obj 380 176 vline~;
#X obj 378 698 *~;
#X obj 528 785 dac~;
#X obj 1270 631 dbtorms;
#X floatatom 1275 582 5 0 0 0 - - -;
#X obj 377 427 +~;
#X obj 476 358 *~ 0.7;
#X obj 476 517 delwrite~ myBuf-L 5000;
#X obj 835 715 *~;
#X obj 834 444 +~;
#X obj 883 375 *~ 0.7;
#X obj 933 534 delwrite~ myBuf-R 5000;
#X obj 867 49 noise~;
#X obj 865 104 *~;
#X obj 246 578 env~;
#X obj 246 616 - 100;
#X obj 243 669 vu 15 120 empty empty -1 -8 0 10 -66577 -1 1 0;
#X obj 949 603 env~;
#X obj 949 641 - 100;
#X obj 946 694 vu 15 120 empty empty -1 -8 0 10 -66577 -1 1 0;
#X floatatom 1099 21 5 0 0 1 delTime - -;
#X obj 1082 95 * 2;
#X obj 879 337 delread~ myBuf-R;
#X obj 476 320 delread~ myBuf-L;
#X obj 626 79 delay;
#X obj 726 220 f;
#X obj 453 35 bng 15 250 50 0 empty empty empty 17 7 0 10 -262144 -1
-1;
#X obj 453 55 t b b;
#X obj 596 213 f;
#X msg 379 138 0 \, 0.75 5 \, 0 100 5;
#X msg 652 426 clear;
#X floatatom 676 273 5 0 0 0 - - -;
#X connect 0 0 1 0;
#X connect 1 0 7 0;
#X connect 2 0 1 1;
#X connect 2 0 15 1;
#X connect 3 0 4 0;
#X connect 5 0 3 1;
#X connect 5 0 10 1;
#X connect 6 0 5 0;
#X connect 7 0 3 0;
#X connect 7 0 9 0;
#X connect 7 0 16 0;
#X connect 8 0 7 1;
#X connect 10 0 4 1;
#X connect 11 0 10 0;
#X connect 11 0 13 0;
#X connect 11 0 19 0;
#X connect 12 0 11 1;
#X connect 14 0 15 0;
#X connect 15 0 11 0;
#X connect 16 0 17 0;
#X connect 17 0 18 0;
#X connect 19 0 20 0;
#X connect 20 0 21 0;
#X connect 22 0 23 0;
#X connect 22 0 30 1;
#X connect 22 0 26 1;
#X connect 23 0 24 0;
#X connect 23 0 27 1;
#X connect 24 0 12 0;
#X connect 25 0 8 0;
#X connect 26 0 27 0;
#X connect 27 0 25 0;
#X connect 27 0 33 0;
#X connect 28 0 29 0;
#X connect 29 0 31 0;
#X connect 29 1 26 0;
#X connect 29 1 30 0;
#X connect 30 0 25 0;
#X connect 30 0 33 0;
#X connect 31 0 2 0;
#X connect 32 0 9 0;
#X connect 32 0 13 0;
