#N canvas 349 92 1243 798 12;
#X obj 387 328 +~;
#X obj 118 524 delwrite~ myBuf-L 5000;
#X obj 467 319 +~;
#X obj 593 531 delwrite~ myBuf-R 5000;
#X msg 435 426 clear;
#N canvas 894 6 786 382 noise-bursts 0;
#X obj 89 107 noise~;
#X obj 90 160 *~;
#X obj 474 180 vline~;
#X obj 388 104 noise~;
#X obj 388 166 *~;
#X msg 474 142 0 \, 0.75 5 \, 0 100 5;
#X obj 90 274 outlet~;
#X obj 388 280 outlet~;
#X obj 474 46 inlet;
#X obj 162 225 delwrite~ tmpDel 5000;
#X obj 161 202 *~ 0.7;
#X connect 0 0 1 0;
#X connect 1 0 6 0;
#X connect 1 0 10 0;
#X connect 2 0 1 1;
#X connect 2 0 4 1;
#X connect 3 0 4 0;
#X connect 4 0 7 0;
#X connect 5 0 2 0;
#X connect 8 0 5 0;
#X connect 10 0 9 0;
#X restore 373 33 pd noise-bursts;
#X floatatom 536 41 5 0 0 1 delTime - -;
#X obj 596 117 * 2;
#N canvas 1038 218 828 424 delay-reads 0;
#X obj 66 44 inlet~;
#X obj 376 50 inlet~;
#X obj 65 355 outlet~;
#X obj 375 355 outlet~;
#X obj 219 219 *~ 0.7;
#X obj 550 213 *~ 0.7;
#X obj 551 180 delread~ myBuf-R;
#X obj 219 181 delread~ myBuf-L;
#X obj 175 355 outlet~;
#X obj 485 355 outlet~;
#X obj 219 128 inlet;
#X obj 551 131 inlet;
#X connect 0 0 2 0;
#X connect 1 0 3 0;
#X connect 4 0 8 0;
#X connect 5 0 9 0;
#X connect 6 0 5 0;
#X connect 7 0 4 0;
#X connect 10 0 7 0;
#X connect 11 0 6 0;
#X restore 386 202 pd delay-reads;
#N canvas 0 50 576 481 output 0;
#X obj 59 235 *~;
#X obj 60 350 dac~;
#X obj 207 174 dbtorms;
#X floatatom 348 356 5 0 0 0 - - -;
#X obj 169 235 *~;
#X obj 347 139 env~;
#X obj 347 177 - 100;
#X obj 348 220 vu 15 120 empty empty -1 -8 0 10 -66577 -1 1 0;
#X obj 414 139 env~;
#X obj 414 177 - 100;
#X obj 415 220 vu 15 120 empty empty -1 -8 0 10 -66577 -1 1 0;
#X obj 59 45 inlet~;
#X obj 169 45 inlet~;
#X connect 0 0 1 0;
#X connect 2 0 0 1;
#X connect 2 0 4 1;
#X connect 3 0 2 0;
#X connect 4 0 1 1;
#X connect 5 0 6 0;
#X connect 6 0 7 0;
#X connect 8 0 9 0;
#X connect 9 0 10 0;
#X connect 11 0 0 0;
#X connect 11 0 5 0;
#X connect 12 0 4 0;
#X connect 12 0 8 0;
#X coords 0 -1 1 1 150 200 1 320 200;
#X restore 388 522 pd output;
#X obj 314 69 bng 15 250 50 0 empty empty empty 17 7 0 10 -262144 -1
-1;
#X obj 362 424 +~;
#X text 713 58 1) Need to make a new mono delay buffer (offsetDelBuf).
Make it 5 seconds \, but flexible in size depending on samplerate.
;
#X text 713 108 2) Account for deleting that buffer in the destructor.
;
#X text 713 138 3) Put the left channel into the offsetDelBuf \, and
read audio out of it delTime ms later. That delayed signal is what
you send to the input of the left channel recirculating delay system.
;
#X text 713 218 4) Set both the left and right recirculating delay
systems to a delay time of delTime*2;
#X text 713 268 5) Direct left channel signal must be mixed (added)
with the output of the left channel recirculating delay system;
#N canvas 1043 13 691 461 offsetDelBuf 0;
#X obj 181 205 delread~ tmpDel;
#X obj 350 76 inlet;
#X obj 83 67 inlet~;
#X obj 189 356 outlet~;
#X obj 493 43 inlet~;
#X obj 500 330 outlet~;
#X connect 0 0 3 0;
#X connect 1 0 0 0;
#X connect 4 0 5 0;
#X restore 397 136 pd offsetDelBuf;
#X connect 0 0 1 0;
#X connect 0 0 11 1;
#X connect 2 0 9 1;
#X connect 2 0 3 0;
#X connect 4 0 1 0;
#X connect 4 0 3 0;
#X connect 5 0 17 0;
#X connect 5 0 11 0;
#X connect 5 1 17 2;
#X connect 6 0 7 0;
#X connect 6 0 17 1;
#X connect 7 0 8 3;
#X connect 7 0 8 1;
#X connect 8 0 0 0;
#X connect 8 1 0 1;
#X connect 8 2 2 0;
#X connect 8 3 2 1;
#X connect 10 0 5 0;
#X connect 11 0 9 0;
#X connect 17 0 8 0;
#X connect 17 1 8 2;
