#N canvas 649 89 804 800 12;
#X obj 387 328 +~;
#X obj 118 524 delwrite~ myBuf-L 5000;
#X obj 467 319 +~;
#X obj 593 531 delwrite~ myBuf-R 5000;
#X msg 435 426 clear;
#N canvas 156 361 786 382 noise-bursts 0;
#X obj 89 107 noise~;
#X obj 90 160 *~;
#X obj 474 180 vline~;
#X obj 388 104 noise~;
#X obj 388 166 *~;
#X msg 474 142 0 \, 0.75 5 \, 0 100 5;
#X obj 90 274 outlet~;
#X obj 388 280 outlet~;
#X obj 474 46 inlet;
#X obj 162 225 delwrite~ tmpDel 5000;
#X connect 0 0 1 0;
#X connect 1 0 9 0;
#X connect 1 0 6 0;
#X connect 2 0 1 1;
#X connect 2 0 4 1;
#X connect 3 0 4 0;
#X connect 4 0 7 0;
#X connect 5 0 2 0;
#X connect 8 0 5 0;
#X restore 374 33 pd noise-bursts;
#X floatatom 536 41 5 0 0 1 delTime - -;
#X obj 596 117 * 2;
#N canvas 238 284 828 424 delay-reads 0;
#X obj 66 44 inlet~;
#X obj 376 50 inlet~;
#X obj 65 355 outlet~;
#X obj 375 355 outlet~;
#X obj 219 219 *~ 0.7;
#X obj 550 213 *~ 0.7;
#X obj 551 180 delread~ myBuf-R;
#X obj 219 181 delread~ myBuf-L;
#X obj 175 355 outlet~;
#X obj 485 355 outlet~;
#X obj 219 128 inlet;
#X obj 551 131 inlet;
#X connect 0 0 2 0;
#X connect 1 0 3 0;
#X connect 4 0 8 0;
#X connect 5 0 9 0;
#X connect 6 0 5 0;
#X connect 7 0 4 0;
#X connect 10 0 7 0;
#X connect 11 0 6 0;
#X restore 386 202 pd delay-reads;
#N canvas 0 50 576 481 output 0;
#X obj 59 235 *~;
#X obj 60 350 dac~;
#X obj 207 174 dbtorms;
#X floatatom 348 356 5 0 0 0 - - -;
#X obj 169 235 *~;
#X obj 347 139 env~;
#X obj 347 177 - 100;
#X obj 348 220 vu 15 120 empty empty -1 -8 0 10 -66577 -1 1 0;
#X obj 414 139 env~;
#X obj 414 177 - 100;
#X obj 415 220 vu 15 120 empty empty -1 -8 0 10 -66577 -1 1 0;
#X obj 59 45 inlet~;
#X obj 169 45 inlet~;
#X connect 0 0 1 0;
#X connect 2 0 0 1;
#X connect 2 0 4 1;
#X connect 3 0 2 0;
#X connect 4 0 1 1;
#X connect 5 0 6 0;
#X connect 6 0 7 0;
#X connect 8 0 9 0;
#X connect 9 0 10 0;
#X connect 11 0 0 0;
#X connect 11 0 5 0;
#X connect 12 0 4 0;
#X connect 12 0 8 0;
#X coords 0 -1 1 1 150 200 1 320 200;
#X restore 388 522 pd output;
#N canvas 0 50 691 461 extra-delay 0;
#X obj 183 222 delread~ tmpDel;
#X obj 350 76 inlet;
#X obj 83 67 inlet~;
#X obj 189 356 outlet~;
#X obj 493 43 inlet~;
#X obj 500 330 outlet~;
#X connect 0 0 3 0;
#X connect 1 0 0 0;
#X connect 4 0 5 0;
#X restore 397 136 pd extra-delay;
#X obj 314 69 bng 15 250 50 0 empty empty empty 17 7 0 10 -262144 -1
-1;
#X obj 362 424 +~;
#X connect 0 0 1 0;
#X connect 0 0 12 1;
#X connect 2 0 9 1;
#X connect 2 0 3 0;
#X connect 4 0 1 0;
#X connect 4 0 3 0;
#X connect 5 0 10 0;
#X connect 5 0 12 0;
#X connect 5 1 10 2;
#X connect 6 0 7 0;
#X connect 6 0 10 1;
#X connect 7 0 8 3;
#X connect 7 0 8 1;
#X connect 8 0 0 0;
#X connect 8 1 0 1;
#X connect 8 2 2 0;
#X connect 8 3 2 1;
#X connect 10 0 8 0;
#X connect 10 1 8 2;
#X connect 11 0 5 0;
#X connect 12 0 9 0;
